<svg xmlns="http://www.w3.org/2000/svg" viewBox="0 0 31.16 26"><defs><style>.cls-1,.cls-2{fill:#004071;}.cls-1{fill-rule:evenodd;}.cls-3{fill:#72bf44;}</style></defs><title>logo</title><g id="Layer_2" data-name="Layer 2"><g id="Layer_1-2" data-name="Layer 1"><path class="cls-1" d="M22.76,18h0l-1.88,1.63,1.88,2.62Zm4.37-.2h0v2.48a1.79,1.79,0,0,0,.23,1.06,1.23,1.23,0,0,0,1.6,0,1.81,1.81,0,0,0,.23-1.06V17.83h2v2.67a2.41,2.41,0,0,1-.72,1.94,3.46,3.46,0,0,1-2.28.62,3.47,3.47,0,0,1-2.28-.62,2.4,2.4,0,0,1-.73-1.93V17.83ZM1.84,22.9V19.11H0V17.83H10.75v1.24H7.51v.6h2.76v1.25H7.51v.67h3.54V17.83h5.2v1.24H13v.6h2.76v1.25H13v.67h3.54V17.83h2v1.76l1.81-1.76h4.39V22.9h-4l-1.37-2.06-.86.7V22.9h-13V19.11H3.8V22.9Z"/><path class="cls-2" d="M30.85,24.77h0s0,0,0,0h.18s0,0,0,0v-.32c0-.1-.26-.16-.43-.16a.47.47,0,0,0-.52.49.38.38,0,0,0,.21.37c.24.15.49.17.49.38a.19.19,0,0,1-.21.22.66.66,0,0,1-.22,0v-.22s0,0,0,0H30.2s0,0,0,0v.36c0,.1.31.16.49.16a.48.48,0,0,0,.51-.5.47.47,0,0,0-.2-.4c-.21-.15-.49-.19-.49-.37s.11-.19.22-.19a.44.44,0,0,1,.16,0Zm-2.24,0h0s0,0,0,0h.18s0,0,0,0v-.32c0-.1-.26-.16-.43-.16a.47.47,0,0,0-.52.49.38.38,0,0,0,.21.37c.24.15.49.17.49.38a.19.19,0,0,1-.21.22.66.66,0,0,1-.22,0v-.22s0,0,0,0H28s0,0,0,0v.36c0,.1.31.16.49.16a.48.48,0,0,0,.51-.5.47.47,0,0,0-.2-.4c-.21-.15-.49-.19-.49-.37s.11-.19.22-.19a.44.44,0,0,1,.16,0Zm-2,.77h0s0,0,0,0H26.4s0,0,0,0v.17h-.3v-.47h.4s0,0,0,0V25s0,0,0,0h-.4v-.39h.3v.15s0,0,0,0h.16s0,0,0,0v-.36s0,0,0,0h-1s0,0,0,0v.13s0,0,0,0h.12v1.17h-.12s0,0,0,0v.13s0,0,0,0h1s0,0,0,0Zm-2.41-1h.12s0,0,0,0v-.13s0,0,0,0h-.51s0,0,0,0v.13s0,0,0,0h.12v.58c0,.08,0,.23,0,.31h0a1.89,1.89,0,0,0-.14-.34l-.39-.74s0,0-.05,0H23s0,0,0,0v.13s0,0,0,0h.12v1.17H23s0,0,0,0v.13s0,0,0,0h.51s0,0,0,0v-.13s0,0,0,0h-.12v-.68c0-.11,0-.18,0-.26h0a1.61,1.61,0,0,0,.14.32l.44.81s0,0,.05,0h.16s0,0,0,0Zm-2.67,1.22h0s0,0,0,0h-.16V24.59h.17v.23s0,0,0,0h.14s0,0,0,0v-.44s0,0,0,0h-1s0,0,0,0v.44s0,0,0,0h.14s0,0,0,0v-.23H21v1.14h-.16s0,0,0,0v.13s0,0,0,0h.63s0,0,0,0Zm-2.16,0h0s0,0-.05,0H19.2V24.56h.12s.05,0,.05,0v-.13s0,0-.05,0h-.56s0,0,0,0v.13s0,0,0,0h.12v1.17h-.12s0,0,0,0v.13s0,0,0,0h.56s.05,0,.05,0Zm-2.22,0h0s0,0,0,0h-.16v-.49h.4s0,0,0,0V25s0,0,0,0h-.4v-.39h.3v.15s0,0,0,0h.16s0,0,0,0v-.36s0,0,0,0h-1s-.05,0-.05,0v.13s0,0,.05,0h.12v1.17H16.5s-.05,0-.05,0v.13s0,0,.05,0h.6s0,0,0,0Zm-3.44-.16h0a.35.35,0,0,1-.26.13.23.23,0,0,1-.24-.24.35.35,0,0,1,.18-.27Zm-.25-.68h0s-.16-.13-.16-.25a.16.16,0,0,1,.17-.17.15.15,0,0,1,.15.17C13.62,24.81,13.51,24.89,13.46,24.93Zm.15.16h0c.07-.06.3-.21.3-.43a.38.38,0,0,0-.43-.38.44.44,0,0,0-.47.4c0,.18.17.33.22.38a.58.58,0,0,0-.35.48c0,.28.21.45.54.45a.59.59,0,0,0,.46-.18L14,26l0,0h0l.12-.11s0,0,0,0,0,0,0,0l-.17-.2a1.1,1.1,0,0,0,.14-.44,0,0,0,0,0,0,0l-.17,0h0s0,.13-.1.32Zm-3.17.68h0s0,0,0,0h-.16V24.59h.17v.23s0,0,0,0h.14s0,0,0,0v-.44s0,0,0,0h-1s0,0,0,0v.44s0,0,0,0h.14s0,0,0,0v-.23h.17v1.14H9.75s0,0,0,0v.13s0,0,0,0h.63s0,0,0,0Zm-2,0h0s0,0,0,0H8.25L8,25.23a.44.44,0,0,0,.27-.44c0-.45-.37-.46-.55-.46H7.12s0,0,0,0v.13s0,0,0,0h.12v1.17H7.12s0,0,0,0v.13s0,0,0,0h.55s.05,0,.05,0v-.13s0,0-.05,0H7.57v-.44h.11l.32.64s0,0,.05,0h.3s0,0,0,0ZM7.57,25h0v-.46h.09c.12,0,.26,0,.26.21s-.13.24-.29.24Zm-2.35.71h0c-.18,0-.25-.23-.25-.6s.08-.61.25-.61.25.23.25.61S5.39,25.75,5.22,25.75Zm.59-.6h0c0-.58-.23-.86-.59-.86s-.59.28-.59.86.22.85.59.85S5.81,25.72,5.81,25.15Zm-2.88.63h0s0,0,0,0H2.72v-.42h.13a.5.5,0,0,0,.54-.53c0-.45-.36-.45-.55-.45H2.28s0,0,0,0v.13s0,0,0,0H2.4v1.17H2.28s0,0,0,0v.13s0,0,0,0h.6s0,0,0,0Zm-.21-.72h0v-.48h.1c.12,0,.25,0,.25.21s-.13.26-.27.26Zm-2-.29s0,0,0,0H.91s0,0,0,0v-.32c0-.1-.26-.16-.43-.16a.47.47,0,0,0-.52.49.38.38,0,0,0,.21.37c.24.15.49.17.49.38a.19.19,0,0,1-.21.22.66.66,0,0,1-.22,0v-.22s0,0,0,0H0s0,0,0,0v.36c0,.1.31.16.49.16A.48.48,0,0,0,1,25.5a.47.47,0,0,0-.2-.4c-.21-.15-.49-.19-.49-.37s.11-.19.22-.19a.44.44,0,0,1,.16,0Z"/><path class="cls-2" d="M16.27,5.64a5.31,5.31,0,0,0-.53.17A5,5,0,0,0,13,8.43a5,5,0,0,0-.41,3.24,2.69,2.69,0,0,0,.08.27,1.37,1.37,0,0,0,.8.88,2.05,2.05,0,0,0,1.24,0,4.46,4.46,0,0,0,1.64-.93,6.84,6.84,0,0,0,2.25-5,5.5,5.5,0,0,0-.64-3,2.4,2.4,0,0,0-.83-.83A2.26,2.26,0,0,0,16,2.65a5.16,5.16,0,0,0-2.4.76c-.11-.39-1.06-2.52.1-3A6.27,6.27,0,0,1,16.07,0a4.89,4.89,0,0,1,2.34.65,5,5,0,0,1,1.75,1.74,8.07,8.07,0,0,1,1,4.51,9.49,9.49,0,0,1-3.17,7,7.13,7.13,0,0,1-2.64,1.47,4.66,4.66,0,0,1-2.85,0,3.94,3.94,0,0,1-2.41-2.46,5.29,5.29,0,0,1-.17-.53,7.71,7.71,0,0,1,.58-5,7.64,7.64,0,0,1,4.27-4,7.93,7.93,0,0,1,.79-.25Z"/><path class="cls-3" d="M16.28,5.63c-.8.21-1.14.65-1,1.37a7.25,7.25,0,0,0,1.14,2.4,22,22,0,0,0,5,5.19c-.21.32-1.45,2.37-2.35,1.56a26.26,26.26,0,0,1-4.85-5.27,9.85,9.85,0,0,1-1.55-3.36,3.47,3.47,0,0,1,1-3.48,4.58,4.58,0,0,1,2-1Z"/></g></g></svg>